<?xml version="1.0" encoding="iso-8859-1"?>
<!-- Generator: Adobe Illustrator 19.0.0, SVG Export Plug-In . SVG Version: 6.00 Build 0)  -->
<svg version="1.1" id="Capa_1" xmlns="http://www.w3.org/2000/svg" xmlns:xlink="http://www.w3.org/1999/xlink" x="0px" y="0px"
	 viewBox="0 0 512 512" style="enable-background:new 0 0 512 512;" xml:space="preserve">
<g>
	<g>
		<path d="M433.204,447.8l-88.589-155.031V78.277h0.246c21.581,0,39.138-17.558,39.138-39.138C384,17.558,366.442,0,344.862,0
			H167.139C145.558,0,128,17.558,128,39.138c0,21.581,17.558,39.138,39.138,39.138h0.246v214.493L78.795,447.8
			c-7.676,13.435-7.623,29.445,0.144,42.828C86.705,504.011,100.58,512,116.052,512h279.897c15.473,0,29.347-7.989,37.113-21.372
			c0.485-0.836,0.94-1.683,1.366-2.538C440.804,475.254,440.402,460.395,433.204,447.8z M167.139,58.585
			c-10.722,0-19.446-8.724-19.446-19.446c0-10.722,8.724-19.446,19.446-19.446h177.723c10.722,0,19.446,8.724,19.446,19.446
			c0,10.722-8.724,19.446-19.446,19.446h-10.092c-5.437,0-9.846,4.408-9.846,9.846v158.031H187.077V78.277H256
			c5.437,0,9.846-4.408,9.846-9.846c0-5.438-4.409-9.846-9.846-9.846H167.139z M416.029,480.743
			c-4.201,7.241-11.709,11.564-20.08,11.564H116.052c-8.372,0-15.879-4.323-20.081-11.564c-4.202-7.241-4.231-15.905-0.078-23.173
			l89.887-157.301c0.851-1.487,1.298-3.171,1.298-4.885v-49.231h137.846v49.231c0,1.713,0.447,3.398,1.297,4.885l89.887,157.301
			C420.26,464.84,420.232,473.503,416.029,480.743z"/>
	</g>
</g>
<g>
	<g>
		<path d="M226.462,167.385c-10.858,0-19.692,8.834-19.692,19.692s8.834,19.692,19.692,19.692s19.692-8.834,19.692-19.692
			S237.32,167.385,226.462,167.385z"/>
	</g>
</g>
<g>
	<g>
		<path d="M275.939,108.308c-16.152,0-29.292,13.141-29.292,29.292c0,16.152,13.141,29.292,29.292,29.292
			s29.292-13.141,29.292-29.292C305.231,121.448,292.09,108.308,275.939,108.308z M275.939,147.2c-5.293,0-9.6-4.307-9.6-9.6
			c0-5.293,4.307-9.6,9.6-9.6c5.293,0,9.6,4.307,9.6,9.6C285.538,142.893,281.232,147.2,275.939,147.2z"/>
	</g>
</g>
<g>
	<g>
		<path d="M295.315,66.511c-0.127-0.63-0.315-1.25-0.561-1.841c-0.246-0.601-0.551-1.172-0.906-1.703
			c-0.364-0.542-0.767-1.044-1.22-1.497c-0.464-0.453-0.965-0.866-1.498-1.221c-0.542-0.354-1.113-0.66-1.702-0.906
			c-0.592-0.246-1.211-0.443-1.841-0.561c-1.27-0.256-2.58-0.256-3.85,0c-0.63,0.118-1.251,0.315-1.841,0.561
			s-1.162,0.551-1.703,0.906c-0.531,0.354-1.044,0.768-1.497,1.221s-0.866,0.955-1.221,1.497c-0.354,0.532-0.66,1.103-0.906,1.703
			c-0.246,0.591-0.432,1.211-0.561,1.841c-0.128,0.63-0.196,1.28-0.196,1.92c0,0.64,0.068,1.29,0.196,1.92
			c0.128,0.63,0.314,1.25,0.56,1.841c0.246,0.601,0.552,1.172,0.906,1.703c0.354,0.542,0.768,1.044,1.221,1.497
			c0.453,0.453,0.965,0.866,1.497,1.221c0.542,0.354,1.114,0.66,1.703,0.906s1.211,0.443,1.841,0.561
			c0.63,0.128,1.28,0.197,1.92,0.197c0.65,0,1.29-0.069,1.93-0.197c0.63-0.118,1.25-0.315,1.841-0.561
			c0.591-0.246,1.162-0.551,1.702-0.906c0.532-0.354,1.034-0.768,1.498-1.221c1.83-1.831,2.875-4.372,2.875-6.961
			C295.502,67.791,295.442,67.141,295.315,66.511z"/>
	</g>
</g>
<g>
	<g>
		<path d="M226.462,384c-21.717,0-39.385,17.668-39.385,39.385s17.668,39.385,39.385,39.385s39.385-17.668,39.385-39.385
			S248.178,384,226.462,384z M226.462,443.077c-10.858,0-19.692-8.834-19.692-19.692c0-10.858,8.834-19.692,19.692-19.692
			s19.692,8.834,19.692,19.692C246.154,434.243,237.32,443.077,226.462,443.077z"/>
	</g>
</g>
<g>
	<g>
		<path d="M276.185,305.231c-16.288,0-29.538,13.251-29.538,29.538s13.251,29.538,29.538,29.538
			c16.287,0,29.538-13.251,29.538-29.538S292.472,305.231,276.185,305.231z M276.185,344.615c-5.429,0-9.846-4.417-9.846-9.846
			s4.417-9.846,9.846-9.846c5.429,0,9.846,4.417,9.846,9.846S281.613,344.615,276.185,344.615z"/>
	</g>
</g>
<g>
</g>
<g>
</g>
<g>
</g>
<g>
</g>
<g>
</g>
<g>
</g>
<g>
</g>
<g>
</g>
<g>
</g>
<g>
</g>
<g>
</g>
<g>
</g>
<g>
</g>
<g>
</g>
<g>
</g>
</svg>
