<?xml version="1.0" encoding="iso-8859-1"?>
<!-- Generator: Adobe Illustrator 19.0.0, SVG Export Plug-In . SVG Version: 6.00 Build 0)  -->
<svg version="1.1" id="Capa_1" xmlns="http://www.w3.org/2000/svg" xmlns:xlink="http://www.w3.org/1999/xlink" x="0px" y="0px"
	 viewBox="0 0 508 508" style="enable-background:new 0 0 508 508;" xml:space="preserve">
<g>
	<g>
		<path d="M444.508,280.5c-7.4-8.8-15.7-17.7-24.8-26.5c9-8.8,17.4-17.7,24.7-26.5c34.1-40.8,45.2-76.5,31.3-100.5
			c-7.3-12.7-20.7-20.9-39.7-24.6c-4-16.4-18.7-28.7-36.3-28.7c-18.8,0-34.3,14-36.9,32.2c-8.1,1.7-16.5,3.7-25.1,6.2
			C320.308,44,290.408,0,255.808,0c-34.6,0-64.5,44-82,112c-67.6-18.9-120.7-15-138,15c-8,13.8-7.6,31.8,0.7,52.4
			c-6.3,6.7-10.2,15.6-10.2,25.5c0,20.6,16.8,37.4,37.4,37.4c4.9,0,9.6-1,14-2.8c4.4,4.8,9.2,9.6,14.1,14.4
			c-9,8.8-17.4,17.7-24.8,26.5c-34,40.8-44.7,76.4-31.2,100.6c18.7,33.4,82.2,28.4,102.7,23.2c11.1-2.8,23.1-4.8,35.3-8.2
			c17.5,68,47.4,112,82,112s64.5-44,82-112c12.1,3.4,24,6.2,35.3,8.2c13.9,2.4,80.7,14.5,102.7-23.2
			C489.808,357,478.608,321.2,444.508,280.5z M63.808,225.9c-11.6,0-21.1-9.5-21.1-21.1s9.4-21.1,21.1-21.1
			c11.6,0,21.1,9.4,21.1,21.1C84.908,216.4,75.508,225.9,63.808,225.9z M135.708,388c-44.4,7.7-75.7,2.2-85.7-15.2
			s0.8-47.2,29.7-81.8c7.1-8.6,15.3-17.2,24.1-25.8c16.7,15.1,35.5,29.9,55.9,44.1c2.1,25.3,5.6,49,10.3,70.7
			C158.208,383.4,146.708,386.1,135.708,388z M158.308,288.3c-15.3-11.2-29.6-22.7-42.5-34.3c12.9-11.6,27.1-23.1,42.5-34.3
			C156.908,236.2,157.508,275.3,158.308,288.3z M159.708,198.6c-20.5,14.2-39.2,29.1-55.9,44.1c-4.4-4.3-8.5-8.5-12.5-12.7
			c6.1-6.7,9.9-15.5,9.9-25.2c0-20.6-16.8-37.4-37.4-37.4c-4.7,0-9.2,1-13.4,2.6c-4.1-11.3-6.4-24.5-0.4-34.8
			c12.4-21.5,57.7-25.1,120.1-7.5C165.408,149.4,161.808,173.3,159.708,198.6z M334.408,186.9c-8.4-6.3-48.7-29.5-59.6-34.5
			c17.5-7.8,34.6-14.3,51.2-19.7C329.508,149.3,332.408,167.5,334.408,186.9z M255.808,16.4c24.8,0,50.6,37.4,66.5,100.3
			c-21.5,6.9-43.8,15.8-66.4,26.4c-23-10.9-45.4-19.7-66.6-26.5C205.108,53.8,231.008,16.4,255.808,16.4z M185.608,132.5
			c16.2,5.3,33.4,11.9,51.4,20c-9.2,3.8-49.3,26.9-59.8,34.5C179.208,167.4,182.108,149.2,185.608,132.5z M177.208,321.1
			c9.1,6.6,49,29.8,59.7,34.4c-17.5,7.8-34.7,14.4-51.3,19.8C182.108,358.7,179.208,340.5,177.208,321.1z M255.808,491.6
			c-24.8,0-50.6-37.4-66.5-100.3c21.5-6.9,43.9-15.8,66.5-26.5c22.7,10.7,45,19.6,66.5,26.5
			C306.408,454.2,280.608,491.6,255.808,491.6z M326.008,375.2c-16.6-5.4-33.8-12-51.3-19.8c10.8-4.7,50.9-27.8,59.7-34.4
			C332.408,340.5,329.608,358.6,326.008,375.2z M336.108,300.4c-11.4,9.1-65.6,40.3-80.3,46.3c-14.7-5.9-68.7-37.2-80.4-46.4
			c-2.1-13.9-2.1-76.9,0-92.6c12.1-9.4,66.2-40.8,80.4-46.4c13.6,5.4,68,36.8,80.3,46.4C338.308,222.9,338.108,285.8,336.108,300.4z
			 M399.708,90.1c11.6,0,21.1,9.4,21.1,21.1c0,11.6-9.4,21.1-21.1,21.1c-11.6,0-21.1-9.4-21.1-21.1
			C378.708,99.6,388.108,90.1,399.708,90.1z M364.208,122.4c4.8,15.2,18.8,26.3,35.6,26.3c17.9,0,32.8-12.6,36.5-29.4
			c12.3,2.9,20.8,8.3,25.3,16c10,17.4-0.8,47.2-29.7,81.8c-7.2,8.6-15.3,17.2-24.1,25.8c-16.7-15.1-35.4-29.9-55.9-44.2
			c-2.1-25.2-5.6-49-10.3-70.6C349.308,125.8,356.808,123.9,364.208,122.4z M353.208,219.7c15.4,11.2,29.6,22.7,42.5,34.3
			c-12.9,11.6-27.1,23.1-42.5,34.3C354.408,277.1,354.408,230.9,353.208,219.7z M461.608,372.8c-10.1,17.4-41.3,22.9-85.7,15.2
			c-11-1.9-22.5-4.6-34.3-8c4.7-21.7,8.2-45.4,10.3-70.7c20.5-14.2,39.3-29.1,55.9-44.2c8.8,8.6,17,17.2,24.1,25.8
			C460.808,325.6,471.608,355.4,461.608,372.8z"/>
	</g>
</g>
<g>
	<g>
		<path d="M255.808,196.6c-31.6,0-57.4,25.7-57.4,57.4c0,31.6,25.7,57.4,57.4,57.4c31.6,0,57.4-25.7,57.4-57.4
			C313.108,222.4,287.408,196.6,255.808,196.6z M255.808,295c-22.6,0-41-18.4-41-41c0-22.6,18.4-41,41-41c22.6,0,41,18.4,41,41
			C296.708,276.6,278.408,295,255.808,295z"/>
	</g>
</g>
<g>
</g>
<g>
</g>
<g>
</g>
<g>
</g>
<g>
</g>
<g>
</g>
<g>
</g>
<g>
</g>
<g>
</g>
<g>
</g>
<g>
</g>
<g>
</g>
<g>
</g>
<g>
</g>
<g>
</g>
</svg>
